<svg width="29" height="29" viewBox="0 0 29 29" fill="none" xmlns="http://www.w3.org/2000/svg">
<path d="M22.95 8.69988V8.94988H23.2H24.65C25.7374 8.94988 26.7802 9.38183 27.5491 10.1507C28.318 10.9196 28.75 11.9624 28.75 13.0498V27.5491C28.7487 27.7857 28.6774 28.0167 28.5451 28.213C28.4127 28.4094 28.2251 28.5623 28.006 28.6523L28.0059 28.652L27.9943 28.6575C27.8576 28.722 27.7076 28.7536 27.5564 28.7497L27.5564 28.7496L27.5486 28.7496C27.3906 28.7505 27.2341 28.7202 27.0879 28.6605C26.9419 28.6009 26.8091 28.5131 26.6971 28.4021C26.6969 28.4019 26.6967 28.4018 26.6966 28.4016L23.2611 24.9517L23.1879 24.8781H23.084H13.05C11.9626 24.8781 10.9198 24.4462 10.1509 23.6773C9.38196 22.9084 8.95 21.8656 8.95 20.7782V18.6902V18.4402H8.7H6.554H6.45019L6.37691 18.5138L2.30345 22.6017C2.30329 22.6018 2.30313 22.602 2.30297 22.6022C2.19094 22.7131 2.05813 22.801 1.91213 22.8606C1.76593 22.9203 1.60938 22.9506 1.45145 22.9497L1.45145 22.9496L1.44356 22.9498C1.29239 22.9537 1.14242 22.9221 1.00565 22.8576L1.00579 22.8573L0.993995 22.8524C0.774852 22.7624 0.587261 22.6095 0.454861 22.4131C0.322573 22.2168 0.251299 21.9857 0.25 21.749V4.34994C0.25 3.26257 0.681962 2.21973 1.45086 1.45085C2.21976 0.681958 3.26261 0.25 4.35 0.25H18.85C19.9374 0.25 20.9802 0.681958 21.7491 1.45085C22.518 2.21973 22.95 3.26257 22.95 4.34994V8.69988ZM8.7 16.0403H8.95V15.7903V13.0498C8.95 11.9624 9.38196 10.9196 10.1509 10.1507C10.9198 9.38183 11.9626 8.94988 13.05 8.94988H20.3H20.55V8.69988V4.34994C20.55 3.89908 20.3709 3.46668 20.0521 3.14787C19.7333 2.82906 19.3009 2.64996 18.85 2.64996H4.35C3.89913 2.64996 3.46673 2.82906 3.14792 3.14787C2.82911 3.46668 2.65 3.89908 2.65 4.34994V18.2552V18.8618L3.0774 18.4314L5.10605 16.3883C5.10628 16.388 5.10651 16.3878 5.10674 16.3876C5.21872 16.2767 5.35146 16.1889 5.49736 16.1293C5.64357 16.0696 5.80013 16.0394 5.95805 16.0403H5.9595H8.7ZM8.45 15.7903H5.9595H8.45ZM25.9232 24.2319L26.35 24.6587V24.0552V13.0498C26.35 12.599 26.1709 12.1666 25.8521 11.8477C25.5333 11.5289 25.1009 11.3498 24.65 11.3498H13.05C12.5991 11.3498 12.1667 11.5289 11.8479 11.8477C11.5291 12.1666 11.35 12.599 11.35 13.0498V20.7202C11.35 21.1711 11.5291 21.6035 11.8479 21.9223C12.1667 22.2411 12.5991 22.4202 13.05 22.4202L23.6195 22.4202C23.6196 22.4202 23.6198 22.4202 23.6199 22.4202C23.7785 22.4209 23.9354 22.4531 24.0815 22.5148C24.2278 22.5766 24.3603 22.6668 24.4715 22.7802L24.4732 22.782L25.9232 24.2319Z" fill="white" stroke="#339E33" stroke-width="0.5"/>
</svg>
