<svg width="180" height="44" viewBox="0 0 180 44" fill="none" xmlns="http://www.w3.org/2000/svg">
<path fill-rule="evenodd" clip-rule="evenodd" d="M38 29.8749L35.3942 32.4456L31.4424 28.5471L32.7453 27.2617L30.1108 24.6626L28.8079 25.948L27.4906 24.6485L26.1877 25.9339L27.5049 27.2334L26.202 28.5188L28.8365 31.1178L30.1394 29.8325L31.4567 31.132L30.1538 32.4174L31.471 33.7169L30.1681 35.0023L28.8508 33.7028L27.5479 34.9881L26.2306 33.6886L27.5336 32.4032L23.5818 28.5047L24.8847 27.2193L23.5675 25.9198L20.9616 28.4905L22.2788 29.7901L18.37 33.6462L22.3218 37.5448L21.0189 38.8301L22.3362 40.1297L21.0332 41.415L22.3505 42.7146L21.0475 44L19.7303 42.7004L18.4273 43.9858L17.1101 42.6863L19.716 40.1155L18.3987 38.816L19.7016 37.5306L17.0671 34.9316L11.8554 40.0731L10.5381 38.7736L9.23518 40.059L7.91787 38.7595L6.61498 40.0448L0.0286681 33.5473L1.33155 32.2619L0.0143038 30.9623L1.31725 29.677L0 28.3774L2.6059 25.8067L1.28858 24.5072L5.19743 20.651L6.51468 21.9505L9.12055 19.3798L10.4378 20.6793L14.3466 16.8231L15.6639 18.1226L20.8756 12.9811L19.5584 11.6815L20.8613 10.3961L19.544 9.09663L20.847 7.81123L14.2606 1.31362L12.9577 2.59902L11.6404 1.29951L9.03461 3.87025L7.7173 2.57074L5.11146 5.14154L6.42872 6.44105L3.82282 9.01183L2.50557 7.71232L5.11146 5.14154L3.79415 3.84203L6.40005 1.27123L7.7173 2.57074L10.3232 0L11.6404 1.29951L12.9434 0.0141112L14.2606 1.31362L15.5636 0.0282157L22.1499 6.52583L20.847 7.81123L22.1642 9.11074L20.8613 10.3961L22.1786 11.6957L20.8756 12.9811L22.1929 14.2806L16.9812 19.4221L15.6639 18.1226L11.7551 21.9788L10.4378 20.6793L7.83193 23.25L6.51468 21.9505L2.6059 25.8067L3.92315 27.1062L2.6202 28.3916L3.93745 29.6911L2.6345 30.9765L7.90357 36.1746L9.20652 34.8892L10.5238 36.1887L14.4326 32.3325L11.798 29.7335L10.4951 31.0189L9.17785 29.7194L7.8749 31.0048L6.55765 29.7052L7.8606 28.4199L6.54335 27.1203L7.8463 25.835L9.16354 27.1345L10.4665 25.8491L11.7837 27.1486L10.4808 28.434L11.798 29.7335L13.101 28.4481L15.7355 31.0472L18.3414 28.4764L17.0241 27.1769L22.2359 22.0353L23.5531 23.3348L26.159 20.764L24.8417 19.4645L30.0535 14.323L28.7362 13.0234L30.0392 11.738L31.3564 13.0376L32.6594 11.7522L33.9766 13.0517L32.6737 14.3371L33.9909 15.6366L32.688 16.922L31.3707 15.6225L27.4619 19.4787L31.4137 23.3772L32.7166 22.0918L37.9857 27.2899L36.6827 28.5753L38 29.8749Z" fill="#339E33"/>
<path d="M55.3522 32.2902C55.4451 32.2902 55.5381 32.31 55.631 32.3495C55.724 32.3812 55.8131 32.4405 55.8983 32.5275L57.4554 34.2006C56.7737 35.1104 55.9177 35.7986 54.8874 36.2654C53.8648 36.7242 52.6524 36.9536 51.2503 36.9536C49.9643 36.9536 48.81 36.7321 47.7875 36.2891C46.7727 35.8382 45.9089 35.2211 45.1962 34.438C44.4912 33.6469 43.949 32.7134 43.5694 31.6375C43.1898 30.5538 43 29.379 43 28.1133C43 26.8238 43.2053 25.6411 43.6159 24.5653C44.0264 23.4815 44.6036 22.548 45.3473 21.7648C46.0909 20.9817 46.9818 20.3725 48.0199 19.9374C49.0579 19.5023 50.2006 19.2848 51.4478 19.2848C52.083 19.2848 52.6795 19.3441 53.2373 19.4628C53.8028 19.5735 54.3296 19.7318 54.8176 19.9374C55.3057 20.1352 55.755 20.3765 56.1656 20.6613C56.5761 20.9461 56.9402 21.2546 57.2579 21.5868L55.9332 23.4024C55.848 23.5131 55.7472 23.616 55.631 23.7109C55.5148 23.7979 55.3522 23.8414 55.143 23.8414C55.0036 23.8414 54.8719 23.8098 54.7479 23.7465C54.624 23.6832 54.4923 23.6081 54.3528 23.521C54.2134 23.4261 54.0585 23.3272 53.888 23.2244C53.7254 23.1136 53.5278 23.0147 53.2954 22.9277C53.0708 22.8328 52.8035 22.7537 52.4936 22.6904C52.1915 22.6271 51.8351 22.5955 51.4246 22.5955C50.7738 22.5955 50.1773 22.7181 49.6351 22.9633C49.1006 23.2086 48.6357 23.5685 48.2407 24.0432C47.8533 24.5099 47.5512 25.0874 47.3343 25.7756C47.1251 26.456 47.0206 27.2352 47.0206 28.1133C47.0206 28.9993 47.1368 29.7864 47.3692 30.4747C47.6093 31.1629 47.9308 31.7443 48.3336 32.219C48.7442 32.6857 49.2206 33.0417 49.7629 33.2869C50.3052 33.5322 50.8862 33.6548 51.5059 33.6548C51.8623 33.6548 52.1876 33.639 52.482 33.6073C52.7764 33.5678 53.0514 33.5084 53.307 33.4293C53.5627 33.3423 53.8028 33.2316 54.0275 33.0971C54.2521 32.9547 54.4807 32.7767 54.7131 32.5631C54.806 32.484 54.9067 32.4207 55.0152 32.3732C55.1236 32.3179 55.236 32.2902 55.3522 32.2902Z" fill="black"/>
<path d="M64.9683 31.7562C64.2479 31.7878 63.6553 31.8511 63.1905 31.9461C62.7257 32.041 62.3577 32.1597 62.0866 32.302C61.8154 32.4444 61.6256 32.6066 61.5172 32.7886C61.4165 32.9705 61.3661 33.1683 61.3661 33.3819C61.3661 33.8012 61.4784 34.0978 61.7031 34.2718C61.9277 34.438 62.257 34.521 62.6908 34.521C63.1556 34.521 63.5623 34.438 63.9109 34.2718C64.2595 34.1057 64.612 33.8367 64.9683 33.4649V31.7562ZM58.4843 26.1672C59.2125 25.5106 60.0182 25.0241 60.9013 24.7077C61.7922 24.3833 62.745 24.2211 63.7598 24.2211C64.488 24.2211 65.1426 24.3438 65.7236 24.589C66.3124 24.8263 66.8082 25.1625 67.211 25.5976C67.6216 26.0248 67.9353 26.5351 68.1522 27.1284C68.3692 27.7217 68.4776 28.3704 68.4776 29.0744V36.7638H66.8276C66.4867 36.7638 66.2272 36.7163 66.049 36.6214C65.8786 36.5264 65.7353 36.3287 65.6191 36.028L65.3634 35.3517C65.0613 35.6127 64.7708 35.8421 64.4919 36.0399C64.213 36.2377 63.9225 36.4078 63.6204 36.5502C63.326 36.6846 63.0084 36.7835 62.6676 36.8468C62.3345 36.918 61.9626 36.9536 61.552 36.9536C61.002 36.9536 60.5023 36.8824 60.053 36.74C59.6037 36.5897 59.2203 36.3722 58.9026 36.0874C58.5928 35.8026 58.3526 35.4506 58.1822 35.0313C58.0118 34.6041 57.9266 34.1136 57.9266 33.5599C57.9266 33.1169 58.035 32.6699 58.2519 32.219C58.4688 31.7602 58.8445 31.3448 59.3791 30.973C59.9136 30.5933 60.634 30.2769 61.5404 30.0237C62.4468 29.7706 63.5894 29.6282 64.9683 29.5965V29.0744C64.9683 28.3545 64.8212 27.8364 64.5268 27.52C64.2401 27.1956 63.8296 27.0334 63.295 27.0334C62.869 27.0334 62.5204 27.0809 62.2492 27.1758C61.9781 27.2708 61.7341 27.3776 61.5172 27.4962C61.308 27.6149 61.1027 27.7217 60.9013 27.8166C60.6999 27.9115 60.4597 27.959 60.1809 27.959C59.933 27.959 59.7238 27.8957 59.5534 27.7691C59.3829 27.6426 59.2435 27.4923 59.135 27.3182L58.4843 26.1672Z" fill="black"/>
<path d="M74.3824 19V36.7638H70.7802V19H74.3824Z" fill="black"/>
<path d="M83.034 31.7562C82.3135 31.7878 81.7209 31.8511 81.2561 31.9461C80.7913 32.041 80.4233 32.1597 80.1522 32.302C79.881 32.4444 79.6912 32.6066 79.5828 32.7886C79.4821 32.9705 79.4317 33.1683 79.4317 33.3819C79.4317 33.8012 79.5441 34.0978 79.7687 34.2718C79.9934 34.438 80.3226 34.521 80.7564 34.521C81.2212 34.521 81.6279 34.438 81.9765 34.2718C82.3251 34.1057 82.6776 33.8367 83.034 33.4649V31.7562ZM76.5499 26.1672C77.2781 25.5106 78.0838 25.0241 78.9669 24.7077C79.8578 24.3833 80.8106 24.2211 81.8255 24.2211C82.5537 24.2211 83.2083 24.3438 83.7893 24.589C84.378 24.8263 84.8738 25.1625 85.2766 25.5976C85.6872 26.0248 86.001 26.5351 86.2179 27.1284C86.4348 27.7217 86.5432 28.3704 86.5432 29.0744V36.7638H84.8932C84.5523 36.7638 84.2928 36.7163 84.1146 36.6214C83.9442 36.5264 83.8009 36.3287 83.6847 36.028L83.429 35.3517C83.1269 35.6127 82.8364 35.8421 82.5575 36.0399C82.2787 36.2377 81.9882 36.4078 81.686 36.5502C81.3917 36.6846 81.074 36.7835 80.7332 36.8468C80.4001 36.918 80.0282 36.9536 79.6176 36.9536C79.0676 36.9536 78.568 36.8824 78.1187 36.74C77.6693 36.5897 77.2859 36.3722 76.9683 36.0874C76.6584 35.8026 76.4183 35.4506 76.2478 35.0313C76.0774 34.6041 75.9922 34.1136 75.9922 33.5599C75.9922 33.1169 76.1006 32.6699 76.3175 32.219C76.5345 31.7602 76.9102 31.3448 77.4447 30.973C77.9792 30.5933 78.6997 30.2769 79.606 30.0237C80.5124 29.7706 81.655 29.6282 83.034 29.5965V29.0744C83.034 28.3545 82.8868 27.8364 82.5924 27.52C82.3058 27.1956 81.8952 27.0334 81.3607 27.0334C80.9346 27.0334 80.586 27.0809 80.3149 27.1758C80.0437 27.2708 79.7997 27.3776 79.5828 27.4962C79.3736 27.6149 79.1683 27.7217 78.9669 27.8166C78.7655 27.9115 78.5254 27.959 78.2465 27.959C77.9986 27.959 77.7894 27.8957 77.619 27.7691C77.4486 27.6426 77.3091 27.4923 77.2007 27.3182L76.5499 26.1672Z" fill="black"/>
<path d="M92.1692 25.7875C92.4016 25.566 92.6417 25.3603 92.8896 25.1704C93.1375 24.9806 93.4009 24.8224 93.6798 24.6958C93.9664 24.5613 94.2724 24.4585 94.5978 24.3873C94.9309 24.3082 95.2911 24.2686 95.6784 24.2686C96.3369 24.2686 96.9179 24.3873 97.4215 24.6246C97.9327 24.854 98.3627 25.1784 98.7113 25.5976C99.0599 26.009 99.3233 26.5034 99.5015 27.0809C99.6796 27.6505 99.7687 28.2715 99.7687 28.9439V36.7638H96.1665V28.9439C96.1665 28.3427 96.0309 27.8759 95.7598 27.5437C95.4886 27.2035 95.0897 27.0334 94.5629 27.0334C94.1678 27.0334 93.796 27.1205 93.4474 27.2945C93.1065 27.4606 92.7734 27.69 92.4481 27.9827V36.7638H88.8458V24.4585H91.0769C91.5262 24.4585 91.8206 24.6641 91.96 25.0755L92.1692 25.7875Z" fill="black"/>
<path d="M106.69 29.9644C107.286 29.9644 107.716 29.8141 107.98 29.5135C108.251 29.205 108.386 28.8094 108.386 28.3269C108.386 27.8285 108.251 27.4369 107.98 27.1521C107.716 26.8673 107.286 26.7249 106.69 26.7249C106.093 26.7249 105.66 26.8673 105.388 27.1521C105.125 27.4369 104.993 27.8285 104.993 28.3269C104.993 28.5642 105.024 28.7817 105.086 28.9795C105.156 29.1773 105.261 29.3513 105.4 29.5016C105.54 29.644 105.714 29.7587 105.923 29.8457C106.14 29.9248 106.396 29.9644 106.69 29.9644ZM109.479 37.2147C109.479 36.922 109.351 36.7123 109.095 36.5858C108.84 36.4513 108.507 36.3563 108.096 36.301C107.685 36.2456 107.224 36.214 106.713 36.206C106.21 36.1902 105.706 36.1586 105.203 36.1111C104.978 36.2693 104.792 36.4473 104.645 36.6451C104.505 36.835 104.436 37.0525 104.436 37.2977C104.436 37.4718 104.471 37.63 104.54 37.7724C104.618 37.9148 104.749 38.0374 104.935 38.1402C105.121 38.2431 105.369 38.3222 105.679 38.3776C105.997 38.4408 106.396 38.4725 106.876 38.4725C107.395 38.4725 107.821 38.4408 108.154 38.3776C108.487 38.3143 108.751 38.2273 108.944 38.1165C109.146 38.0058 109.285 37.8713 109.363 37.7131C109.44 37.5627 109.479 37.3966 109.479 37.2147ZM113.035 24.8382V26.1791C113.035 26.3848 112.976 26.5469 112.86 26.6656C112.752 26.7843 112.562 26.8752 112.291 26.9385L111.419 27.1402C111.466 27.3143 111.501 27.4923 111.524 27.6742C111.555 27.8562 111.57 28.046 111.57 28.2438C111.57 28.8608 111.443 29.4146 111.187 29.9051C110.939 30.3955 110.594 30.8148 110.153 31.1629C109.719 31.5031 109.204 31.7681 108.607 31.9579C108.011 32.1399 107.372 32.2309 106.69 32.2309C106.504 32.2309 106.322 32.2269 106.144 32.219C105.966 32.2032 105.791 32.1794 105.621 32.1478C105.357 32.3139 105.226 32.4998 105.226 32.7055C105.226 32.9112 105.334 33.0615 105.551 33.1564C105.768 33.2434 106.055 33.3067 106.411 33.3463C106.767 33.3779 107.17 33.4017 107.62 33.4175C108.077 33.4254 108.541 33.4531 109.014 33.5005C109.487 33.5401 109.947 33.6113 110.397 33.7141C110.854 33.817 111.261 33.9831 111.617 34.2125C111.973 34.4419 112.26 34.7504 112.477 35.1381C112.694 35.5178 112.802 36.0043 112.802 36.5976C112.802 37.1514 112.67 37.6933 112.407 38.2233C112.144 38.7533 111.756 39.224 111.245 39.6354C110.734 40.0467 110.106 40.375 109.363 40.6203C108.619 40.8734 107.767 41 106.806 41C105.861 41 105.044 40.909 104.354 40.7271C103.673 40.5451 103.103 40.3038 102.646 40.0032C102.197 39.7105 101.864 39.3704 101.647 38.9827C101.43 38.5951 101.321 38.1917 101.321 37.7724C101.321 37.2265 101.476 36.7717 101.786 36.4078C102.096 36.0439 102.53 35.7512 103.088 35.5297C102.793 35.3477 102.561 35.1143 102.391 34.8296C102.22 34.5448 102.135 34.1769 102.135 33.726C102.135 33.544 102.166 33.3542 102.228 33.1564C102.29 32.9507 102.387 32.753 102.518 32.5631C102.658 32.3653 102.828 32.1794 103.03 32.0054C103.231 31.8314 103.471 31.6771 103.75 31.5426C103.123 31.2024 102.627 30.7555 102.263 30.2017C101.899 29.6401 101.717 28.9874 101.717 28.2438C101.717 27.6268 101.844 27.073 102.1 26.5825C102.356 26.0841 102.704 25.6649 103.146 25.3247C103.595 24.9766 104.122 24.7116 104.726 24.5297C105.33 24.3398 105.985 24.2449 106.69 24.2449C107.713 24.2449 108.619 24.4426 109.409 24.8382H113.035Z" fill="black"/>
<path d="M119.865 24.2686C120.779 24.2686 121.611 24.415 122.363 24.7077C123.114 25.0004 123.757 25.4196 124.292 25.9655C124.834 26.5113 125.252 27.1758 125.547 27.959C125.849 28.7343 126 29.6084 126 30.5814C126 31.5624 125.849 32.4484 125.547 33.2395C125.252 34.0227 124.834 34.6911 124.292 35.2449C123.757 35.7907 123.114 36.214 122.363 36.5146C121.611 36.8073 120.779 36.9536 119.865 36.9536C118.943 36.9536 118.102 36.8073 117.343 36.5146C116.592 36.214 115.941 35.7907 115.391 35.2449C114.849 34.6911 114.426 34.0227 114.124 33.2395C113.83 32.4484 113.683 31.5624 113.683 30.5814C113.683 29.6084 113.83 28.7343 114.124 27.959C114.426 27.1758 114.849 26.5113 115.391 25.9655C115.941 25.4196 116.592 25.0004 117.343 24.7077C118.102 24.415 118.943 24.2686 119.865 24.2686ZM119.865 34.2244C120.693 34.2244 121.302 33.9277 121.689 33.3344C122.084 32.7332 122.282 31.8234 122.282 30.6052C122.282 29.3869 122.084 28.4811 121.689 27.8878C121.302 27.2945 120.693 26.9978 119.865 26.9978C119.012 26.9978 118.389 27.2945 117.994 27.8878C117.599 28.4811 117.401 29.3869 117.401 30.6052C117.401 31.8234 117.599 32.7332 117.994 33.3344C118.389 33.9277 119.012 34.2244 119.865 34.2244Z" fill="black"/>
<path d="M134.677 33.7759C135.195 33.7759 135.616 33.7085 135.94 33.5737C136.273 33.4389 136.531 33.2644 136.717 33.0502C136.902 32.8361 137.03 32.5942 137.099 32.3245C137.169 32.0549 137.204 31.7812 137.204 31.5036C137.204 31.1864 137.161 30.9009 137.076 30.6471C136.999 30.3933 136.86 30.1791 136.659 30.0046C136.466 29.8301 136.207 29.6953 135.882 29.6001C135.558 29.505 135.148 29.4574 134.654 29.4574H131.918V33.7759H134.677ZM131.918 22.4858V26.7687H133.958C134.391 26.7687 134.781 26.7369 135.129 26.6735C135.477 26.61 135.77 26.499 136.01 26.3404C136.257 26.1818 136.443 25.9636 136.566 25.6861C136.698 25.4085 136.763 25.0595 136.763 24.6391C136.763 24.2267 136.713 23.8857 136.613 23.616C136.512 23.3384 136.358 23.1163 136.149 22.9498C135.94 22.7832 135.674 22.6642 135.349 22.5929C135.032 22.5215 134.654 22.4858 134.213 22.4858H131.918ZM134.213 19.4759C135.38 19.4759 136.373 19.5869 137.192 19.809C138.011 20.0311 138.68 20.3443 139.198 20.7488C139.715 21.1533 140.09 21.6451 140.322 22.2241C140.561 22.803 140.681 23.4494 140.681 24.1633C140.681 24.5519 140.627 24.9286 140.519 25.2935C140.411 25.6504 140.241 25.9874 140.009 26.3047C139.777 26.614 139.48 26.8995 139.116 27.1613C138.753 27.423 138.317 27.649 137.807 27.8394C138.919 28.117 139.742 28.5651 140.276 29.1837C140.809 29.8024 141.075 30.6034 141.075 31.5869C141.075 32.3245 140.936 33.0106 140.658 33.6451C140.38 34.2796 139.97 34.8348 139.429 35.3106C138.896 35.7786 138.235 36.1474 137.447 36.4171C136.659 36.6788 135.759 36.8097 134.746 36.8097H128V19.4759H134.213Z" fill="#339E33"/>
<path d="M149.134 31.7892C148.415 31.8209 147.824 31.8843 147.361 31.9795C146.897 32.0747 146.53 32.1937 146.259 32.3364C145.989 32.4792 145.8 32.6418 145.691 32.8242C145.591 33.0066 145.541 33.2049 145.541 33.419C145.541 33.8394 145.653 34.1368 145.877 34.3113C146.101 34.4779 146.429 34.5611 146.862 34.5611C147.326 34.5611 147.731 34.4779 148.079 34.3113C148.427 34.1447 148.779 33.8751 149.134 33.5023V31.7892ZM142.666 26.1857C143.392 25.5274 144.196 25.0397 145.077 24.7224C145.966 24.3972 146.916 24.2346 147.929 24.2346C148.655 24.2346 149.308 24.3576 149.888 24.6034C150.475 24.8414 150.969 25.1785 151.371 25.6147C151.781 26.043 152.094 26.5545 152.31 27.1494C152.527 27.7442 152.635 28.3946 152.635 29.1005V36.8097H150.989C150.649 36.8097 150.39 36.7621 150.212 36.6669C150.042 36.5717 149.899 36.3734 149.783 36.072L149.528 35.3939C149.227 35.6557 148.937 35.8857 148.659 36.0839C148.381 36.2822 148.091 36.4527 147.789 36.5955C147.496 36.7303 147.179 36.8295 146.839 36.8929C146.507 36.9643 146.136 37 145.726 37C145.177 37 144.679 36.9286 144.231 36.7859C143.783 36.6352 143.4 36.4171 143.083 36.1315C142.774 35.846 142.535 35.4931 142.365 35.0727C142.195 34.6444 142.11 34.1527 142.11 33.5975C142.11 33.1533 142.218 32.7052 142.434 32.2531C142.65 31.7931 143.025 31.3767 143.558 31.004C144.092 30.6233 144.81 30.306 145.715 30.0522C146.619 29.7984 147.759 29.6557 149.134 29.6239V29.1005C149.134 28.3787 148.987 27.8592 148.694 27.542C148.408 27.2168 147.998 27.0542 147.465 27.0542C147.04 27.0542 146.692 27.1018 146.422 27.197C146.151 27.2921 145.908 27.3992 145.691 27.5182C145.483 27.6371 145.278 27.7442 145.077 27.8394C144.876 27.9346 144.637 27.9822 144.358 27.9822C144.111 27.9822 143.902 27.9187 143.732 27.7918C143.562 27.6649 143.423 27.5142 143.315 27.3397L142.666 26.1857Z" fill="#339E33"/>
<path d="M158.247 25.805C158.479 25.5829 158.718 25.3767 158.966 25.1864C159.213 24.996 159.476 24.8374 159.754 24.7105C160.04 24.5757 160.345 24.4726 160.67 24.4012C161.002 24.3219 161.361 24.2822 161.748 24.2822C162.404 24.2822 162.984 24.4012 163.486 24.6391C163.996 24.8691 164.425 25.1943 164.773 25.6147C165.121 26.0271 165.383 26.5228 165.561 27.1018C165.739 27.6728 165.828 28.2954 165.828 28.9696V36.8097H162.234V28.9696C162.234 28.3668 162.099 27.8989 161.829 27.5658C161.558 27.2247 161.16 27.0542 160.635 27.0542C160.241 27.0542 159.87 27.1414 159.522 27.3159C159.182 27.4825 158.85 27.7125 158.525 28.0059V36.8097H154.932V24.4726H157.157C157.605 24.4726 157.899 24.6788 158.038 25.0912L158.247 25.805Z" fill="#339E33"/>
<path d="M171.747 19V28.9815H172.28C172.504 28.9815 172.674 28.9498 172.79 28.8863C172.906 28.8149 173.022 28.6999 173.138 28.5413L175.41 25.0674C175.549 24.8691 175.707 24.7224 175.885 24.6272C176.063 24.5241 176.291 24.4726 176.569 24.4726H179.861L176.754 28.8625C176.461 29.2591 176.113 29.5843 175.711 29.8381C175.889 29.9729 176.051 30.1315 176.198 30.3139C176.345 30.4884 176.484 30.6867 176.615 30.9088L180 36.8097H176.754C176.484 36.8097 176.252 36.766 176.059 36.6788C175.866 36.5836 175.703 36.421 175.572 36.191L173.3 31.8249C173.192 31.6266 173.08 31.4997 172.964 31.4442C172.848 31.3807 172.674 31.349 172.442 31.349H171.747V36.8097H168.153V19H171.747Z" fill="#339E33"/>
</svg>
