<svg width="85" height="100" viewBox="0 0 85 100" fill="none" xmlns="http://www.w3.org/2000/svg">
<path fill-rule="evenodd" clip-rule="evenodd" d="M85 67.8974L79.1712 73.74L70.3316 64.8797L73.2461 61.9583L67.3531 56.0515L64.4387 58.9727L61.4922 56.0192L58.5777 58.9406L61.5242 61.894L58.6097 64.8154L64.5028 70.7223L67.4171 67.801L70.3638 70.7545L67.4493 73.6758L70.3957 76.6293L67.4813 79.5506L64.5348 76.5972L61.6203 79.5184L58.6738 76.565L61.5883 73.6436L52.7487 64.7833L55.6632 61.862L52.7167 58.9085L46.8877 64.7511L49.8342 67.7047L41.0909 76.4686L49.9303 85.329L47.016 88.2503L49.9625 91.2038L47.048 94.1251L49.9945 97.0786L47.08 100L44.1335 97.0464L41.219 99.9678L38.2726 97.0144L44.1015 91.1716L41.155 88.2182L44.0694 85.2968L38.1764 79.39L26.5186 91.0753L23.572 88.1219L20.6577 91.0432L17.711 88.0898L14.7967 91.011L0.0641261 76.2439L2.97847 73.3225L0.0319954 70.3689L2.94648 67.4477L0 64.4941L5.82898 58.6515L2.88235 55.6981L11.6258 46.934L14.5723 49.8875L20.4012 44.0449L23.3477 46.9983L32.0911 38.2342L35.0377 41.1878L46.6955 29.5024L43.749 26.549L46.6634 23.6276L43.7169 20.6742L46.6314 17.7528L31.8988 2.9855L28.9843 5.90687L26.0378 2.95343L20.209 8.79602L17.2624 5.84259L11.4335 11.6853L14.38 14.6387L8.55104 20.4814L5.60456 17.528L11.4335 11.6853L8.48691 8.73188L14.3159 2.88915L17.2624 5.84259L23.0914 0L26.0378 2.95343L28.9523 0.0320708L31.8988 2.9855L34.8133 0.0641266L49.5458 14.8314L46.6314 17.7528L49.5778 20.7062L46.6634 23.6276L49.6099 26.581L46.6955 29.5024L49.642 32.4558L37.9842 44.1412L35.0377 41.1878L26.2942 49.9518L23.3477 46.9983L17.5188 52.8409L14.5723 49.8875L5.82898 58.6515L8.77547 61.605L5.86097 64.5263L8.80745 67.4798L5.89297 70.4011L17.679 82.215L20.5935 79.2936L23.54 82.2471L32.2834 73.483L26.3904 67.5761L23.4759 70.4975L20.5294 67.544L17.6149 70.4654L14.6684 67.5118L17.5829 64.5906L14.6364 61.6371L17.5509 58.7159L20.4974 61.6693L23.4119 58.7479L26.3583 61.7013L23.4439 64.6227L26.3904 67.5761L29.3048 64.6548L35.1978 70.5618L41.0268 64.7191L38.0803 61.7656L49.7381 50.0802L52.6846 53.0337L58.5136 47.191L55.5671 44.2376L67.2248 32.5522L64.2784 29.5987L67.1929 26.6774L70.1393 29.6309L73.0538 26.7096L76.0003 29.663L73.0858 32.5844L76.0323 35.5378L73.1179 38.4592L70.1713 35.5057L61.428 44.2697L70.2675 53.1301L73.1819 50.2087L84.968 62.0226L82.0535 64.944L85 67.8974Z" fill="white"/>
</svg>
