<svg width="30" height="30" viewBox="0 0 30 30" fill="none" xmlns="http://www.w3.org/2000/svg">
<path d="M6.63118 7.5637C7.45315 7.5637 8.25753 7.65736 9.00208 8.03054C9.67206 8.36635 10.173 8.90399 10.6956 9.42655L12.5584 11.2894L14.0826 12.8136C14.3588 13.0893 14.6217 13.3865 15.0422 13.3748C15.4595 13.3631 15.728 13.0309 16.0019 12.7571L17.7519 11.0072C18.8823 9.87669 20.0303 8.32893 21.5905 7.79394C22.3124 7.54639 23.0405 7.5637 23.792 7.5637C23.5406 7.2068 23.197 6.91226 22.8888 6.60405L21.3647 5.07989L19.3325 3.04769C18.0892 1.80447 16.8529 0.710141 14.9858 0.791905C13.3475 0.863649 12.2451 1.8933 11.1472 2.99124L8.94563 5.19279C8.1886 5.94982 7.24759 6.68863 6.63118 7.5637ZM20.0663 6.49115C19.3137 6.8918 18.744 7.47478 18.147 8.07175L16.397 9.8217L15.4938 10.7249C15.3796 10.8382 15.2212 11.0519 15.0422 11.0519C14.8836 11.0519 14.7495 10.8814 14.6471 10.7811C14.343 10.4833 14.0449 10.1791 13.7439 9.87815C12.6222 8.75648 11.5478 7.44033 10.1875 6.60405C10.6291 5.97717 11.2827 5.45248 11.8246 4.91054C13.002 3.7331 14.2358 2.09418 16.1148 2.77053C17.0708 3.11466 17.7882 4.10017 18.4857 4.79764L19.5018 5.81374C19.713 6.02497 19.9391 6.21838 20.0663 6.49115ZM5.27637 8.92007C5.01452 9.051 4.80312 9.3353 4.59897 9.53945L3.35707 10.7814C2.69863 11.4398 1.94978 12.0753 1.4507 12.87C0.520155 14.3517 0.54167 16.2707 1.52357 17.7247C2.02316 18.4645 2.72943 19.0728 3.35707 19.7005L4.59897 20.9424C4.80312 21.1465 5.01452 21.4308 5.27637 21.5618C5.47363 21.6604 5.73999 21.6198 5.95377 21.6198C6.41947 21.6198 6.90132 21.6551 7.36503 21.6102C8.55168 21.4954 9.27469 20.7262 10.0746 19.9263L12.6713 17.3296C13.4509 16.5501 14.217 15.6209 15.4374 15.878C16.4103 16.083 17.0838 17.0002 17.7519 17.6683L20.1228 20.0392C20.5878 20.5042 21.0373 21.063 21.6469 21.3431C22.2858 21.6367 22.9373 21.6198 23.6227 21.6198C24.0493 21.6198 24.7601 21.7551 25.1468 21.5618C25.3664 21.452 25.5403 21.2262 25.7113 21.0553L26.7274 20.0392C28.0629 18.7037 29.5719 17.4379 29.6606 15.4103C29.7572 13.2006 28.0985 11.8137 26.671 10.3862L25.6549 9.3701C25.4892 9.20448 25.3166 8.97951 25.0904 8.89611C24.8437 8.80518 24.503 8.86205 24.2436 8.86205C23.6869 8.86205 23.1038 8.81254 22.5501 8.87185C21.5054 8.98377 20.77 9.73892 20.0663 10.4427L17.3003 13.2087C16.6084 13.9006 15.8671 14.849 14.76 14.6502C13.788 14.4756 13.1632 13.6441 12.502 12.9829L10.3569 10.8378C9.64675 10.1277 8.98347 9.28599 7.98598 8.98671C7.55669 8.85791 7.13075 8.86205 6.68763 8.86205C6.28874 8.86205 5.63867 8.73892 5.27637 8.92007ZM6.12312 10.7025C6.29453 10.6393 6.50822 10.6685 6.68763 10.6685C6.99225 10.6685 7.30576 10.6518 7.59083 10.7797C7.99041 10.9589 8.3028 11.3804 8.60693 11.6846L10.752 13.8297L11.7116 14.7893C11.825 14.9035 12.0387 15.062 12.0387 15.2409C12.0387 15.3995 11.8682 15.5336 11.7679 15.6361C11.5259 15.8832 11.2788 16.1254 11.0343 16.3699L8.71983 18.6844C8.37434 19.0299 8.00653 19.5451 7.53438 19.7138C7.17124 19.8435 6.42333 19.9337 6.06667 19.7554C5.80482 19.6244 5.59342 19.3401 5.38927 19.136L4.20382 17.9505C3.8078 17.5545 3.3535 17.1748 3.03866 16.7086C2.88534 16.4816 2.76049 16.24 2.68864 15.9748C2.23311 14.2932 3.46595 13.2692 4.54252 12.1926L5.55862 11.1765C5.72432 11.0109 5.89692 10.7859 6.12312 10.7025ZM22.7759 10.6854C23.179 10.6254 23.9156 10.5608 24.3001 10.7025C24.5044 10.7778 24.6583 10.9705 24.8081 11.1201L25.5984 11.9104C26.7085 13.0205 28.0479 14.0083 27.783 15.749C27.6201 16.8199 26.5977 17.5722 25.8807 18.2892L24.8081 19.3618C24.6286 19.5409 24.4514 19.7639 24.1872 19.805C23.7307 19.876 22.9811 19.9009 22.5501 19.7299C22.07 19.5394 21.7206 19.0967 21.3647 18.7408L19.3889 16.7651L18.3164 15.6925C18.203 15.5783 17.9893 15.4199 17.9893 15.2409C17.9893 15.0823 18.1599 14.9482 18.2602 14.8458C18.5207 14.5797 18.7869 14.3188 19.0502 14.0555L21.4776 11.6281C21.8523 11.2534 22.2198 10.7683 22.7759 10.6854ZM6.63118 22.9181C7.26215 23.8139 8.22714 24.5705 9.00208 25.3455L11.0907 27.4341C12.2377 28.5811 13.3813 29.6499 15.0987 29.6913C16.9081 29.735 18.1289 28.6377 19.3325 27.4341L21.3647 25.4019L22.8888 23.8778C23.197 23.5696 23.5406 23.275 23.792 22.9181C23.0867 22.9181 22.3832 22.9432 21.7034 22.7195C20.0787 22.1847 18.9221 20.645 17.7519 19.4747L16.0019 17.7247C15.7312 17.4542 15.4576 17.1121 15.0422 17.1085C14.5968 17.1046 14.3171 17.4338 14.0261 17.7247L12.5584 19.1924L10.6956 21.0553C10.1418 21.6091 9.61047 22.1681 8.88918 22.5047C8.18477 22.8335 7.39835 22.9181 6.63118 22.9181ZM20.0663 23.9907C19.9391 24.2635 19.713 24.4569 19.5018 24.6681L18.4857 25.6842C17.8328 26.3371 17.1531 27.2663 16.2841 27.6337C16.0497 27.7329 15.8039 27.807 15.5503 27.8292C13.8835 27.9753 12.9554 26.7021 11.881 25.6277C11.3212 25.0679 10.6437 24.5254 10.1875 23.8778C11.5269 22.9743 12.6057 21.7419 13.7439 20.6037C14.0449 20.3027 14.343 19.9985 14.6471 19.7007C14.7495 19.6004 14.8836 19.4299 15.0422 19.4299C15.2212 19.4299 15.3797 19.6436 15.4938 19.757L16.397 20.6601L18.147 22.4101C18.744 23.0071 19.3137 23.59 20.0663 23.9907Z" fill="white"/>
</svg>
