<svg width="16" height="16" viewBox="0 0 16 16" fill="none" xmlns="http://www.w3.org/2000/svg">
<path d="M3.13109 3.62957C3.57016 3.62957 3.99983 3.6796 4.39755 3.87895C4.75543 4.05832 5.02302 4.34551 5.30216 4.62465L6.29723 5.61972L7.11138 6.43387C7.2589 6.58114 7.39934 6.73992 7.624 6.73364C7.84688 6.72741 7.9903 6.54997 8.13661 6.40372L9.07138 5.46895C9.67524 4.86509 10.2885 4.03833 11.1218 3.75256C11.5075 3.62032 11.8964 3.62957 12.2978 3.62957C12.1635 3.43893 11.98 3.2816 11.8154 3.11696L11.0012 2.30281L9.91568 1.21727C9.2516 0.553189 8.59118 -0.0313649 7.59384 0.0123107C6.71874 0.050634 6.12987 0.600636 5.54339 1.18712L4.36739 2.36312C3.96302 2.76749 3.46036 3.16214 3.13109 3.62957ZM10.3077 3.05665C9.90566 3.27067 9.60134 3.58207 9.28245 3.90096L8.34769 4.83572L7.86523 5.31816C7.80423 5.37871 7.71958 5.49287 7.624 5.49287C7.53926 5.49287 7.46764 5.40177 7.41292 5.3482C7.25047 5.18913 7.09123 5.02664 6.93046 4.86588C6.3313 4.26671 5.7574 3.56368 5.03078 3.11696C5.26666 2.7821 5.61575 2.50183 5.90523 2.21235C6.53419 1.5834 7.19321 0.707939 8.19692 1.06923C8.70759 1.25304 9.09081 1.77947 9.46338 2.15204L10.0061 2.69481C10.119 2.80763 10.2397 2.91095 10.3077 3.05665ZM2.4074 4.3541C2.26753 4.42404 2.15461 4.5759 2.04556 4.68495L1.38217 5.34834C1.03046 5.70005 0.630451 6.03953 0.363857 6.46402C-0.133209 7.2555 -0.121715 8.28054 0.402782 9.05725C0.669647 9.45244 1.04691 9.77736 1.38217 10.1126L2.04556 10.776C2.15461 10.8851 2.26753 11.0369 2.4074 11.1069C2.51277 11.1595 2.65505 11.1379 2.76925 11.1379C3.01801 11.1379 3.2754 11.1567 3.52309 11.1327C4.15696 11.0714 4.54316 10.6605 4.97047 10.2332L6.35754 8.84617C6.77393 8.42978 7.18317 7.93344 7.83507 8.0708C8.35477 8.18031 8.71453 8.67025 9.07138 9.02709L10.3378 10.2935C10.5863 10.542 10.8264 10.8404 11.152 10.9901C11.4933 11.1469 11.8412 11.1379 12.2074 11.1379C12.4353 11.1379 12.8149 11.2102 13.0215 11.1069C13.1388 11.0482 13.2317 10.9276 13.3231 10.8363L13.8658 10.2935C14.5792 9.5802 15.3853 8.90406 15.4326 7.82094C15.4842 6.64062 14.5982 5.89977 13.8357 5.13726L13.2929 4.59449C13.2044 4.50602 13.1122 4.38585 12.9914 4.3413C12.8596 4.29273 12.6776 4.32311 12.5391 4.32311C12.2417 4.32311 11.9302 4.29666 11.6344 4.32834C11.0764 4.38813 10.6836 4.7915 10.3077 5.16741L8.83015 6.64495C8.46057 7.01453 8.06459 7.52114 7.47323 7.41494C6.95403 7.32169 6.62029 6.87754 6.26708 6.52433L5.12124 5.37849C4.74191 4.99916 4.38761 4.54956 3.85478 4.3897C3.62547 4.3209 3.39795 4.32311 3.16124 4.32311C2.94817 4.32311 2.60093 4.25734 2.4074 4.3541ZM2.85971 5.30622C2.95127 5.27247 3.06541 5.28803 3.16124 5.28803C3.32396 5.28803 3.49143 5.27912 3.6437 5.34743C3.85715 5.44318 4.02402 5.66834 4.18647 5.8308L5.33231 6.97664L5.8449 7.48925C5.90546 7.55025 6.01961 7.6349 6.01961 7.73048C6.01961 7.81522 5.92852 7.88684 5.87494 7.94156C5.7457 8.07354 5.6137 8.20294 5.48308 8.33356L4.24678 9.56986C4.06223 9.75441 3.86576 10.0296 3.61355 10.1197C3.41957 10.189 3.02007 10.2372 2.82955 10.1419C2.68968 10.072 2.57676 9.92014 2.46771 9.81109L1.83448 9.17786C1.62294 8.96632 1.38027 8.76352 1.21209 8.51448C1.13019 8.39319 1.0635 8.26415 1.02512 8.12248C0.781792 7.22425 1.44034 6.67725 2.0154 6.10218L2.55817 5.55941C2.64668 5.47094 2.73888 5.35077 2.85971 5.30622ZM11.7551 5.2971C11.9704 5.26502 12.3638 5.2305 12.5692 5.30622C12.6783 5.34646 12.7606 5.44938 12.8406 5.52926L13.2627 5.95141C13.8557 6.54439 14.5712 7.07203 14.4297 8.00186C14.3427 8.57393 13.7965 8.97577 13.4135 9.35878L12.8406 9.9317C12.7447 10.0274 12.65 10.1465 12.5089 10.1685C12.2651 10.2064 11.8647 10.2197 11.6344 10.1283C11.378 10.0266 11.1913 9.79012 11.0012 9.60001L9.94584 8.54463L9.37294 7.97171C9.31238 7.91071 9.19823 7.82607 9.19823 7.73048C9.19823 7.64574 9.28932 7.57412 9.3429 7.51941C9.48208 7.37726 9.62424 7.23792 9.76491 7.09725L11.0615 5.80064C11.2617 5.60048 11.458 5.34136 11.7551 5.2971ZM3.13109 11.8314C3.46813 12.3099 3.9836 12.7141 4.39755 13.128L5.51324 14.2437C6.1259 14.8563 6.73677 15.4273 7.65415 15.4494C8.62067 15.4727 9.27277 14.8866 9.91568 14.2437L11.0012 13.1582L11.8154 12.344C11.98 12.1794 12.1635 12.022 12.2978 11.8314C11.921 11.8314 11.5453 11.8448 11.1821 11.7253C10.3143 11.4396 9.69651 10.6171 9.07138 9.99201L8.13661 9.05725C7.99203 8.91272 7.84586 8.72999 7.624 8.72807C7.38606 8.726 7.23667 8.90187 7.08123 9.05725L6.29723 9.84124L5.30216 10.8363C5.00635 11.1321 4.72253 11.4308 4.33724 11.6106C3.96097 11.7862 3.54089 11.8314 3.13109 11.8314ZM10.3077 12.4043C10.2397 12.55 10.119 12.6533 10.0061 12.7662L9.46338 13.3089C9.11463 13.6577 8.75155 14.154 8.28738 14.3503C8.16214 14.4033 8.03087 14.4428 7.89538 14.4547C7.00502 14.5328 6.5093 13.8527 5.93539 13.2788C5.63633 12.9797 5.27444 12.6899 5.03078 12.344C5.74621 11.8614 6.32248 11.2031 6.93046 10.5951C7.09123 10.4343 7.25047 10.2718 7.41292 10.1128C7.46764 10.0592 7.53926 9.96809 7.624 9.96809C7.71958 9.96809 7.80423 10.0822 7.86523 10.1428L8.34769 10.6252L9.28245 11.56C9.60134 11.8789 9.90566 12.1903 10.3077 12.4043Z" fill="black"/>
</svg>
