<svg width="15" height="13" viewBox="0 0 15 13" fill="none" xmlns="http://www.w3.org/2000/svg">
<path d="M10.7798 8.67366L10.7798 8.67363L10.7797 8.65953V4.08662C10.7797 3.64701 11.1286 3.29555 11.553 3.29555C11.9774 3.29555 12.3263 3.64701 12.3263 4.08662V8.65953C12.3263 9.16204 12.0957 9.75955 11.7934 10.173C11.7754 10.1976 11.7559 10.2215 11.7351 10.2443L10.4889 11.6089C10.1878 11.9386 9.70582 11.9386 9.40473 11.6089C9.09648 11.2713 9.09648 10.7189 9.40473 10.3814L10.6509 9.01678C10.7362 8.92336 10.782 8.79942 10.7798 8.67366ZM4.35782 2.50917C4.80421 2.50917 5.17093 2.87881 5.17093 3.34084V8.90705C5.17093 9.05399 5.24602 9.17698 5.33598 9.2601L7.85824 11.5909C8.1701 11.879 8.1701 12.341 7.85824 12.6292C7.5396 12.9236 7.01844 12.9236 6.6998 12.6292L4.17753 10.2984C4.06127 10.191 3.9895 10.0607 3.95968 9.92587C3.92565 9.77197 3.79539 9.60291 3.59115 9.60291C3.56819 9.60291 3.54471 9.58314 3.54471 9.55269V3.34084C3.54471 2.87881 3.91144 2.50917 4.35782 2.50917ZM0.15 0.963842C0.15 0.511658 0.508898 0.15 0.945622 0.15H11.6844C12.1996 0.15 12.8119 0.411903 13.2363 0.742821C13.256 0.758143 13.2751 0.774375 13.2936 0.791516L14.5936 1.99732C14.9355 2.31437 14.9355 2.82339 14.5936 3.14044C14.2453 3.46348 13.6763 3.46348 13.328 3.14044L12.028 1.93464C12.0193 1.92665 12.011 1.91856 12.0028 1.91036C11.9185 1.82562 11.8035 1.77768 11.6844 1.77768H0.945622C0.508898 1.77768 0.15 1.41603 0.15 0.963842Z" fill="black" stroke="white" stroke-width="0.3"/>
</svg>
