<svg width="33" height="28" viewBox="0 0 33 28" fill="none" xmlns="http://www.w3.org/2000/svg">
<path d="M26.4528 4.05739L26.1722 4.34246L26.4528 4.05738C26.2537 3.86136 25.9838 3.75193 25.7057 3.75193H2.08037C1.15153 3.75193 0.4 3.00078 0.4 2.07597C0.4 1.15115 1.15153 0.4 2.08037 0.4H25.7057C26.8218 0.4 28.1553 0.95713 29.0802 1.66309C29.1218 1.69488 29.1623 1.72854 29.2014 1.76406L32.0615 4.36117C32.7795 5.01316 32.7795 6.05278 32.0615 6.70477C31.3212 7.37699 30.1064 7.37699 29.3661 6.70477L26.506 4.10766C26.4878 4.0911 26.47 4.07434 26.4528 4.05739ZM25.7684 22.0096L26.0609 22.2825L25.7684 22.0097L23.0268 24.9488C22.3917 25.6297 21.3743 25.6297 20.7392 24.9488C20.0893 24.252 20.0893 23.1116 20.7392 22.4149L23.4808 19.4757C23.6819 19.2602 23.7907 18.973 23.7856 18.6803L23.7854 18.6513V8.80196C23.7854 7.90423 24.5149 7.17503 25.4166 7.17503C26.3183 7.17503 27.0479 7.90423 27.0479 8.80196V18.6513C27.0479 19.7118 26.5489 20.9821 25.8915 21.8623C25.8534 21.9133 25.8124 21.9625 25.7684 22.0096ZM9.58721 5.48129C10.5373 5.48129 11.3061 6.24964 11.3061 7.19566V19.1844C11.3061 19.5312 11.4868 19.816 11.6948 20.0042L17.2437 25.0243C17.8957 25.6141 17.8957 26.5521 17.2437 27.1419C16.5686 27.7527 15.4591 27.7527 14.7839 27.1419L9.23496 22.1218C8.99004 21.9003 8.84099 21.6338 8.77925 21.3604C8.6981 21.0011 8.38754 20.6063 7.90052 20.6063C7.88196 20.6063 7.86836 20.5915 7.86836 20.575V7.19566C7.86836 6.24964 8.63712 5.48129 9.58721 5.48129Z" fill="white" stroke="#339E33" stroke-width="0.8"/>
</svg>
