<svg width="28" height="32" viewBox="0 0 28 32" fill="none" xmlns="http://www.w3.org/2000/svg">
<path fill-rule="evenodd" clip-rule="evenodd" d="M27.2 21.7272L25.3348 23.5968L22.5061 20.7615L23.4387 19.8267L21.553 17.9365L20.6204 18.8713L19.6775 17.9262L18.7449 18.861L19.6877 19.8061L18.7551 20.7409L20.6409 22.6311L21.5735 21.6963L22.5164 22.6414L21.5838 23.5763L22.5266 24.5214L21.594 25.4562L20.6511 24.5111L19.7185 25.4459L18.7756 24.5008L19.7083 23.566L16.8796 20.7307L17.8122 19.7958L16.8694 18.8507L15.0041 20.7204L15.947 21.6655L13.1491 24.47L15.9777 27.3053L15.0451 28.2401L15.988 29.1852L15.0553 30.12L15.9982 31.0652L15.0656 32L14.1227 31.0549L13.1901 31.9897L12.2472 31.0446L14.1125 29.1749L13.1696 28.2298L14.1022 27.295L12.2164 25.4048L8.48596 29.1441L7.54304 28.199L6.61045 29.1338L5.66753 28.1887L4.73494 29.1235L0.0205204 24.398L0.953111 23.4632L0.0102385 22.518L0.942873 21.5833L0 20.6381L1.86527 18.7685L0.922352 17.8234L3.72026 15.0189L4.66314 15.964L6.5284 14.0944L7.47127 15.0395L10.2691 12.235L11.2121 13.1801L14.9426 9.44077L13.9997 8.49567L14.9323 7.56083L13.9894 6.61573L14.922 5.6809L10.2076 0.955359L9.27499 1.8902L8.33211 0.945097L6.46688 2.81473L5.52396 1.86963L3.65873 3.7393L4.60161 4.6844L2.73633 6.55406L1.79346 5.60896L3.65873 3.7393L2.71581 2.7942L4.58109 0.924528L5.52396 1.86963L7.38923 0L8.33211 0.945097L9.26475 0.0102627L10.2076 0.955359L11.1403 0.0205205L15.8547 4.74606L14.922 5.6809L15.8649 6.62599L14.9323 7.56083L15.8752 8.50593L14.9426 9.44077L15.8854 10.3859L12.1549 14.1252L11.2121 13.1801L8.41415 15.9846L7.47127 15.0395L5.60601 16.9091L4.66314 15.964L1.86527 18.7685L2.80815 19.7136L1.87551 20.6484L2.81838 21.5935L1.88575 22.5284L5.65729 26.3088L6.58993 25.374L7.5328 26.3191L10.3307 23.5146L8.44492 21.6244L7.51228 22.5592L6.56941 21.6141L5.63677 22.5489L4.6939 21.6038L5.62653 20.669L4.68366 19.7239L5.6163 18.7891L6.55917 19.7342L7.49179 18.7993L8.43467 19.7444L7.50205 20.6793L8.44492 21.6244L9.37754 20.6895L11.2633 22.5798L13.1286 20.7101L12.1857 19.765L15.9162 16.0257L16.8591 16.9708L18.7243 15.1011L17.7815 14.156L21.5119 10.4167L20.5691 9.4716L21.5017 8.53676L22.4446 9.4819L23.3772 8.54707L24.3201 9.49217L23.3875 10.427L24.3303 11.3721L23.3977 12.3069L22.4548 11.3618L19.657 14.1663L22.4856 17.0016L23.4182 16.0668L27.1898 19.8472L26.2571 20.7821L27.2 21.7272Z" fill="#339E33"/>
</svg>
